<!DOCTYPE svg PUBLIC "-//W3C//DTD SVG 1.1//EN" "http://www.w3.org/Graphics/SVG/1.1/DTD/svg11.dtd">
<!-- Uploaded to: SVG Repo, www.svgrepo.com, Transformed by: SVG Repo Mixer Tools -->
<svg fill="#ffffff" width="800px" height="800px" viewBox="0 0 256 256" id="Flat" xmlns="http://www.w3.org/2000/svg">
<g id="SVGRepo_bgCarrier" stroke-width="0"/>
<g id="SVGRepo_tracerCarrier" stroke-linecap="round" stroke-linejoin="round"/>
<g id="SVGRepo_iconCarrier"> <path d="M172,68a44,44,0,1,0-44,44A44.04978,44.04978,0,0,0,172,68Zm-44,36a36,36,0,1,1,36-36A36.04061,36.04061,0,0,1,128,104Zm60,24a44,44,0,1,0,44,44A44.04978,44.04978,0,0,0,188,128Zm0,80a36,36,0,1,1,36-36A36.04061,36.04061,0,0,1,188,208ZM68,128a44,44,0,1,0,44,44A44.04978,44.04978,0,0,0,68,128Zm0,80a36,36,0,1,1,36-36A36.04061,36.04061,0,0,1,68,208Z"/> </g>
</svg>